<?xml version="1.0" encoding="UTF-8" standalone="no"?>
<!-- Created with Inkscape (http://www.inkscape.org/) -->
<svg
   xmlns:dc="http://purl.org/dc/elements/1.1/"
   xmlns:cc="http://creativecommons.org/ns#"
   xmlns:rdf="http://www.w3.org/1999/02/22-rdf-syntax-ns#"
   xmlns:svg="http://www.w3.org/2000/svg"
   xmlns="http://www.w3.org/2000/svg"
   xmlns:sodipodi="http://sodipodi.sourceforge.net/DTD/sodipodi-0.dtd"
   xmlns:inkscape="http://www.inkscape.org/namespaces/inkscape"
   width="820"
   height="820"
   id="svg2"
   sodipodi:version="0.32"
   inkscape:version="0.46"
   sodipodi:docname="Buttonhome.svg"
   inkscape:output_extension="org.inkscape.output.svg.inkscape"
   version="1.0">
  <defs
     id="defs4">
    <inkscape:perspective
       sodipodi:type="inkscape:persp3d"
       inkscape:vp_x="0 : 526.18109 : 1"
       inkscape:vp_y="0 : 1000 : 0"
       inkscape:vp_z="744.09448 : 526.18109 : 1"
       inkscape:persp3d-origin="372.04724 : 350.78739 : 1"
       id="perspective10" />
    <inkscape:perspective
       id="perspective2390"
       inkscape:persp3d-origin="372.04724 : 350.78739 : 1"
       inkscape:vp_z="744.09448 : 526.18109 : 1"
       inkscape:vp_y="0 : 1000 : 0"
       inkscape:vp_x="0 : 526.18109 : 1"
       sodipodi:type="inkscape:persp3d" />
    <inkscape:perspective
       id="perspective2443"
       inkscape:persp3d-origin="372.04724 : 350.78739 : 1"
       inkscape:vp_z="744.09448 : 526.18109 : 1"
       inkscape:vp_y="0 : 1000 : 0"
       inkscape:vp_x="0 : 526.18109 : 1"
       sodipodi:type="inkscape:persp3d" />
  </defs>
  <sodipodi:namedview
     id="base"
     pagecolor="#ffffff"
     bordercolor="#666666"
     borderopacity="1.0"
     gridtolerance="10000"
     guidetolerance="10"
     objecttolerance="10"
     inkscape:pageopacity="0.0"
     inkscape:pageshadow="2"
     inkscape:zoom="0.7"
     inkscape:cx="284.05954"
     inkscape:cy="457.9046"
     inkscape:document-units="px"
     inkscape:current-layer="layer1"
     showgrid="true"
     inkscape:window-width="1280"
     inkscape:window-height="968"
     inkscape:window-x="-4"
     inkscape:window-y="-4"
     inkscape:snap-global="false">
    <inkscape:grid
       type="xygrid"
       id="grid2383" />
  </sodipodi:namedview>
  <metadata
     id="metadata7">
    <rdf:RDF>
      <cc:Work
         rdf:about="">
        <dc:format>image/svg+xml</dc:format>
        <dc:type
           rdf:resource="http://purl.org/dc/dcmitype/StillImage" />
      </cc:Work>
    </rdf:RDF>
  </metadata>
  <g
     inkscape:label="Layer 1"
     inkscape:groupmode="layer"
     id="layer1">
    <path
       style="fill:#000000"
       d="M 380.37236,816.26651 C 378.72236,816.07698 372.42236,815.43186 366.37236,814.83292 C 291.40605,807.41133 216.31343,776.31613 154.87236,727.25261 C 138.00925,713.78664 107.49583,683.41409 94.250675,666.91077 C 43.929843,604.21161 15.165393,536.0622 5.1919633,455.91077 C 2.3843834,433.34771 2.6716234,383.33956 5.7405034,360.41077 C 19.712803,256.01806 67.99542,167.06056 147.48264,99.260336 C 233.13159,26.204327 348.90489,-7.996175 461.69849,6.4380676 C 636.75578,28.840207 778.48091,163.20445 810.27541,336.91077 C 817.93371,378.75079 818.83021,425.3506 812.78621,467.41077 C 802.19821,541.09141 773.72901,606.36288 725.98911,666.41077 C 713.32071,682.34519 681.60616,713.96531 665.15751,727.06117 C 601.06055,778.093 528.1948,807.74822 448.03248,815.42768 C 434.22461,816.75045 389.42119,817.30591 380.37236,816.26651 z     M 445.37236,777.84392 C 572.46576,765.419 685.35556,687.07055 741.37451,572.41077 C 769.26051,515.33354 781.49371,456.51479 778.70261,392.93237 C 775.29051,315.20268 747.55231,241.80542 698.15515,179.79749 C 684.93064,163.19686 657.31216,135.4479 641.37236,122.74643 C 585.67097,78.361347 523.89746,52.372397 452.37236,43.231567 C 432.81591,40.732277 387.1675,40.741007 367.37236,43.247827 C 256.87713,57.240707 162.46966,115.65799 101.00742,208.06861 C 36.275863,305.3948 22.553173,430.77528 64.57841,540.91077 C 113.17015,668.25512 228.18555,759.07998 362.87236,776.46625 C 389.2075,779.86577 419.51428,780.37186 445.37236,777.84392 z"
       id="path3333" />
    <path
       style="fill:#25c1dc;fill-opacity:1"
       d="M 232.42441,602.60142 C 229.54551,601.08528 230.21792,598.85873 230.20911,596.56568 C 230.34868,593.82319 229.37956,550.85089 229.38836,493.56568 C 229.38836,493.56568 230.08472,393.31855 229.40436,389.41077 C 228.7391,385.58968 228.89042,384.47428 227.94456,383.52842 L 225.50126,381.08512 C 223.70865,379.82033 220.79487,378.20226 217.37236,377.3453 C 211.78889,375.94725 195.1894,376.38896 195.1894,376.38896 C 194.28171,376.48128 175.43027,376.73761 170.87951,372.59416 C 170.87951,372.59416 169.12823,370.96955 168.92911,370.41077 C 168.74418,369.89178 168.72217,365.66365 168.72217,365.66365 C 168.84769,361.69612 169.48536,360.23801 172.60513,356.78481 C 174.65815,354.51236 215.26506,319.52356 262.84272,279.03193 C 268.39351,274.32251 398.84301,161.94516 402.76191,158.21792 C 406.71447,155.52755 412.1986,155.43209 415.43123,157.46594 C 417.53014,158.87301 418.34815,159.25881 419.96111,160.51522 C 421.2873,161.67267 447.79736,184.15721 478.87236,210.48087 C 537.91497,260.49592 641.66125,347.55168 646.07156,352.81675 C 650.52227,358.13004 650.19386,359.24604 650.49271,362.71137 C 650.91259,367.58026 650.65894,369.58755 649.37643,371.5449 C 646.3752,376.12537 642.56662,376.8924 621.65448,377.12804 L 602.37236,377.3453 C 600.33919,377.36821 597.82848,377.8649 596.50326,378.64025 C 595.17804,379.4156 594.46206,380.92476 593.68781,381.79129 C 592.91356,382.65783 590.89331,385.49763 590.9124,386.17655 L 591.02268,390.09887 C 590.665,388.82733 590.49687,434.83895 590.64905,492.34692 C 590.89491,585.25771 590.75279,597.24132 589.37337,599.90882 C 588.39904,600.98552 586.63955,601.45862 585.16205,603.0173 C 467.66248,601.88019 349.87851,607.71312 232.42441,602.60142 z M 478.15448,515.53965 C 479.92431,514.78553 482.41553,513.03638 483.69051,511.65265 L 486.00867,509.13678 L 485.98746,455.04575 C 485.97302,418.19939 485.62126,400.31011 484.88412,398.93275 C 482.06931,393.67322 484.54082,393.83984 409.36019,393.84133 C 343.98876,393.84262 339.48194,393.95412 337.64608,395.61555 C 336.56865,396.59061 335.2543,398.1971 334.72532,399.18553 C 334.14362,400.27244 333.76456,422.28166 333.76616,454.87738 C 333.76825,497.34261 334.04488,509.23726 335.07058,510.96555 C 335.78656,512.17195 338.17236,513.99326 340.37236,515.01292 C 344.1367,516.75762 348.21849,516.86814 409.65448,516.88881 C 462.76204,516.90667 475.5367,516.65507 478.15448,515.53965 z"
       id="path2414"
       sodipodi:nodetypes="cccsccsccscsccccssssccssccscccccccssssssssc" />
  </g>
</svg>
