<?xml version="1.0" encoding="UTF-8" standalone="no"?>
<!-- Created with Inkscape (http://www.inkscape.org/) -->
<svg
   xmlns:dc="http://purl.org/dc/elements/1.1/"
   xmlns:cc="http://web.resource.org/cc/"
   xmlns:rdf="http://www.w3.org/1999/02/22-rdf-syntax-ns#"
   xmlns:svg="http://www.w3.org/2000/svg"
   xmlns="http://www.w3.org/2000/svg"
   xmlns:sodipodi="http://sodipodi.sourceforge.net/DTD/sodipodi-0.dtd"
   xmlns:inkscape="http://www.inkscape.org/namespaces/inkscape"
   width="800"
   height="800"
   id="svg2"
   sodipodi:version="0.32"
   inkscape:version="0.45.1"
   sodipodi:docbase="/home/uwe/Desktop"
   sodipodi:docname="girl on bike.svg"
   inkscape:output_extension="org.inkscape.output.svg.inkscape"
   version="1.0">
  <defs
     id="defs4" />
  <sodipodi:namedview
     id="base"
     pagecolor="#ffffff"
     bordercolor="#666666"
     borderopacity="1.0"
     inkscape:pageopacity="0.0"
     inkscape:pageshadow="2"
     inkscape:zoom="0.5"
     inkscape:cx="517.91046"
     inkscape:cy="406.14605"
     inkscape:document-units="px"
     inkscape:current-layer="layer1"
     inkscape:window-width="872"
     inkscape:window-height="625"
     inkscape:window-x="188"
     inkscape:window-y="124"
     width="800px"
     height="800px" />
  <metadata
     id="metadata7">
    <rdf:RDF>
      <cc:Work
         rdf:about="">
        <dc:format>image/svg+xml</dc:format>
        <dc:type
           rdf:resource="http://purl.org/dc/dcmitype/StillImage" />
      </cc:Work>
    </rdf:RDF>
  </metadata>
  <g
     inkscape:label="Ebene 1"
     inkscape:groupmode="layer"
     id="layer1">
    <path
       style="fill:#000000;fill-opacity:1;stroke:none;stroke-opacity:1"
       d="M 438.76202,47.87972 L 438.02334,51.22323 C 437.61631,53.07635 437.28711,57.08532 437.32352,60.08739 C 437.35997,63.08946 437.17733,89.51985 436.89588,118.83198 C 436.45536,164.71225 435.90278,179.15994 434.17442,192.42795 C 433.99616,193.79644 433.76714,198.83501 433.63012,203.62479 L 433.35798,212.33345 L 432.38603,206.11297 C 431.8428,202.69172 430.99421,191.63483 430.51989,181.54212 C 429.8483,167.25112 429.28164,163.19172 427.95395,163.19172 C 427.01627,163.19172 425.35081,161.37223 424.22166,159.1484 C 423.09251,156.9246 420.3437,152.86573 418.15672,150.12873 C 412.47171,143.01396 412.17216,142.30901 410.53663,133.60559 C 408.83205,124.53481 409.70002,119.13219 413.80238,113.58345 C 416.48893,109.94968 422.41216,107.22519 427.60405,107.20746 C 430.3272,107.19817 431.12168,103.59305 431.14194,91.30638 C 431.15563,83.00097 430.80206,80.84169 429.19805,80.22617 C 427.23212,79.47179 410.03121,87.01002 410.03121,88.62381 C 410.03121,89.08178 408.35168,91.56142 406.29892,94.14447 C 403.14504,98.11312 402.55134,99.90746 402.56665,105.80786 C 402.5766,109.64824 403.47637,115.32518 404.54943,118.40431 C 406.31431,123.46881 406.3203,125.07062 404.58829,135.19959 C 400.10266,161.43232 399.50435,171.10548 401.78908,181.50322 C 402.9575,186.82064 404.69468,192.34897 405.63801,193.78867 C 406.58134,195.22836 407.72745,198.33733 408.16507,200.67006 C 408.82668,204.19671 408.40995,205.40683 405.75463,207.90135 C 403.99831,209.55137 402.56665,211.38917 402.56665,211.98355 C 402.56665,213.36746 388.63159,233.86207 385.22708,237.48748 C 383.80819,238.99843 382.66114,240.81925 382.66114,241.56967 C 382.66114,245.93295 374.72314,259.27471 367.42099,267.19023 C 361.16928,273.96705 359.21007,285.57916 364.27186,285.81277 C 368.43928,286.00509 371.46429,287.93195 371.46429,290.40037 C 371.46429,293.67298 376.24952,303.77439 377.8014,303.77439 C 378.42982,303.77439 382.55638,300.19869 386.97658,295.84328 C 391.39681,291.48786 396.72054,287.21655 398.79548,286.35707 C 400.87045,285.4976 402.56391,284.17462 402.56665,283.40233 C 402.57266,281.70141 411.78694,272.7691 416.9126,269.48403 C 418.94724,268.18002 421.27334,266.24325 422.08338,265.20747 C 424.00714,262.7476 430.6574,249.45181 432.34716,244.67991 C 433.49426,241.44041 433.57236,241.75148 432.93032,247.12921 C 432.52349,250.53688 431.12306,254.82448 429.82009,256.65432 C 428.51713,258.48416 427.44853,260.57995 427.44853,261.28079 C 427.44853,261.98159 426.57851,263.3949 425.54351,264.42989 C 423.90176,266.07165 423.67439,276.26903 423.75513,344.44073 C 423.92483,487.74314 423.57123,545.73424 422.51103,546.80046 C 421.93314,547.3816 420.43387,547.51357 419.16754,547.11148 C 416.95389,546.40863 416.87041,542.77778 416.87372,452.75469 C 416.87563,401.25672 416.65997,358.15687 416.4072,356.95942 C 416.15443,355.76198 415.59648,354.77377 415.1631,354.78226 C 413.89775,354.80699 408.78713,363.25419 408.78713,365.31819 C 408.78713,366.35416 407.93878,367.2232 406.92097,367.2232 C 405.90318,367.2232 403.57299,369.58424 401.75022,372.47172 C 399.92743,375.3592 395.76342,380.56496 392.49726,384.01847 C 389.05196,387.66136 383.7089,395.8354 379.74528,403.49633 C 375.98774,410.75897 370.74408,419.67436 368.12079,423.32409 C 362.56012,431.06048 360.19567,436.70211 359.37324,444.00715 C 358.86342,448.53547 360.57019,467.77633 363.92196,494.74287 C 364.43225,498.84839 368.65887,514.52401 373.29155,529.57752 C 377.92421,544.63107 381.99586,558.34724 382.3501,560.05784 L 383.01104,563.16808 L 379.70642,559.66905 C 377.89997,557.75211 376.44066,555.90055 376.44066,555.54799 C 376.44066,555.19546 374.96428,552.99536 373.17492,550.64937 C 370.06858,546.57674 369.57548,546.39859 362.63898,546.64495 C 358.64331,546.78684 355.17031,546.65014 354.90228,546.33392 C 353.40661,544.56933 342.85012,524.7444 342.85012,523.70696 C 342.85012,523.02733 339.13375,515.97106 334.60799,508.00027 C 330.08224,500.02947 324.13159,489.30001 321.38948,484.16808 C 315.93774,473.96507 312.93373,469.41905 308.44313,464.57358 C 306.82525,462.82788 305.52729,460.72864 305.52729,459.90824 C 305.52729,459.08783 304.4118,457.41824 303.03908,456.17597 C 301.6664,454.93368 300.77295,453.66011 301.0952,453.33787 C 301.41743,453.01562 301.11101,451.64252 300.3954,450.30538 C 299.67977,448.96825 298.80286,448.16564 298.4515,448.517 C 296.47657,450.49191 275.66901,430.67594 275.66901,426.8231 C 275.66901,424.0321 278.57817,417.07598 279.9456,416.59821 C 282.29771,415.77636 305.53034,418.16598 307.97659,419.47517 C 309.28173,420.17367 316.12467,421.01283 323.17786,421.34131 C 330.23107,421.66981 341.32609,423.01507 347.82649,424.33491 C 360.71977,426.95275 361.75355,426.68538 363.22216,420.40825 C 363.87771,417.60619 363.50585,416.73018 361.2005,415.74288 C 356.09482,413.55631 333.89265,409.51382 326.79352,409.48352 C 322.96808,409.46721 317.61451,408.94727 314.89687,408.3172 C 312.17924,407.6871 305.03706,407.04952 299.03466,406.91758 C 282.87695,406.56243 281.84583,406.25219 282.2005,401.66907 C 282.47832,398.07936 282.1586,397.75937 277.10751,396.73157 C 274.14279,396.12827 270.96452,395.94592 270.03171,396.3039 C 268.14799,397.02677 263.25336,407.11704 260.62325,415.74288 C 259.68438,418.82202 257.66308,423.58069 256.11339,426.31768 C 254.5637,429.0547 253.31144,432.9736 253.31419,435.02635 C 253.31873,438.41466 254.25936,439.27459 263.5391,444.35706 C 275.39078,450.84819 283.74409,458.52833 284.96084,464.06818 C 285.43025,466.20534 287.128,469.03522 288.77088,470.32753 C 290.41377,471.61982 292.32607,474.13078 293.00859,475.92595 C 293.6911,477.72114 294.83447,479.19174 295.53565,479.19171 C 296.23684,479.19171 296.80679,479.89154 296.81863,480.74682 C 296.83043,481.60213 298.29813,483.63742 300.04548,485.29554 C 301.79284,486.95363 304.63372,491.15245 306.3826,494.62625 C 308.13146,498.10004 310.30985,501.37499 311.20345,501.89642 C 312.09707,502.41788 313.61822,504.37735 314.58585,506.25076 C 326.51808,529.35359 331.48345,538.36845 339.0012,550.49387 C 340.61673,553.09955 343.1122,557.3959 344.56075,560.05784 C 350.80997,571.54211 360.65153,586.71049 364.66064,591.04357 C 368.43626,595.12429 369.70675,595.70892 374.57452,595.70891 C 377.64925,595.70891 380.17294,595.26654 380.17294,594.69809 C 380.17294,593.66984 401.11829,594.26058 402.17786,595.32013 C 402.4834,595.62567 402.05486,599.25049 401.2448,603.36788 C 399.87805,610.31492 400.01246,611.63211 403.14982,621.485 C 406.47005,631.91222 407.97171,634.40556 415.82402,642.90675 C 420.0147,647.44376 422.5569,648.18129 424.80483,645.47269 C 427.52137,642.19947 424.93539,636.1593 418.5066,630.77683 C 409.79636,623.4842 407.23699,617.88302 407.62077,606.86689 C 407.95907,597.15641 409.15769,594.4523 416.44608,586.80587 C 419.05494,584.06886 421.18179,581.40964 421.18919,580.89642 C 421.19656,580.38323 421.78789,579.96339 422.47216,579.96336 C 423.1564,579.96336 423.71624,581.39569 423.71624,583.15134 C 423.71624,587.99027 425.76856,590.87531 429.89785,591.78223 C 434.62287,592.82005 435.03929,593.58897 434.95198,600.80194 C 434.91262,604.0548 434.88627,607.8311 434.87422,609.19955 C 434.56054,644.84264 435.03325,711.47397 435.65178,719.65182 C 436.41747,729.77559 436.8018,730.94172 440.97806,736.0972 C 447.36034,743.97604 463.70905,751.4826 480.32255,754.1366 C 485.06668,754.8944 489.19291,755.7756 489.49774,756.0805 C 489.80257,756.3853 497.25126,756.6248 506.05975,756.6248 C 519.56899,756.6248 522.86216,756.2544 526.93721,754.1754 C 529.59428,752.8199 531.96403,750.7205 532.2246,749.5101 C 533.53388,743.42884 523.73753,736.31133 511.23052,734.26994 C 496.5743,731.87776 497.98067,738.86715 497.46773,666.58341 C 497.16368,623.73961 497.448,603.60119 498.32304,603.60114 C 499.44825,603.60114 500.31379,612.6049 499.80041,618.80242 C 499.69801,620.03852 501.20456,621.76239 503.29941,622.84573 C 508.99907,625.79313 517.37658,625.19693 527.71477,621.05735 C 536.27818,617.62839 537.44399,617.44659 543.14931,618.76354 C 550.07646,620.36254 556.96613,618.97828 561.88849,614.99238 L 564.6877,612.69859 L 562.43277,604.10656 C 561.20187,599.37512 558.81973,592.99528 557.14537,589.91611 C 555.47104,586.83697 553.8747,582.38089 553.5686,580.00222 C 552.89102,574.73663 547.39255,565.03425 545.09322,565.03422 C 544.17548,565.03422 543.11733,563.91046 542.76055,562.54602 C 542.22796,560.50943 541.45082,560.20315 538.28957,560.8354 C 534.88546,561.51623 534.44064,561.28244 534.44064,558.77486 C 534.44064,556.14092 534.26768,556.07061 532.2246,557.91955 C 528.75146,561.06272 525.57934,559.75928 523.47707,554.34277 C 522.43592,551.66027 520.63832,548.08347 519.51153,546.37281 C 517.03066,542.60656 508.31467,525.7662 508.31467,524.75666 C 508.31467,524.36046 509.65555,524.55598 511.30826,525.18432 C 514.9718,526.57719 518.75776,523.45713 525.07107,513.87083 L 529.26988,507.53372 L 525.22659,501.7409 C 522.96198,498.51493 519.99444,495.81816 518.50069,495.59819 C 515.38922,495.14009 503.33829,505.71152 503.33829,508.89446 C 503.33829,509.98603 501.82769,508.62561 499.99479,505.90086 C 498.16189,503.17607 495.52138,499.94591 494.12422,498.70843 C 491.70959,496.56967 491.51615,496.56155 490.00316,498.63068 C 489.02148,499.97319 488.38006,504.89337 488.33141,511.46039 C 488.26819,519.99664 487.99717,521.49614 486.97067,519.00271 C 486.26643,517.29209 485.36913,503.91726 484.98791,489.29997 L 484.28811,462.74632 L 491.01398,467.45056 C 494.70879,470.03455 501.29544,475.39272 505.67097,479.38609 C 510.04651,483.37945 514.37049,486.65631 515.27382,486.65628 C 516.17718,486.65628 517.53503,487.776 518.26742,489.14446 C 518.99982,490.51296 520.27427,491.70519 521.10551,491.78815 C 521.93677,491.87112 527.66033,497.44221 533.81862,504.19022 C 550.33576,522.28906 551.85796,524.07128 551.85796,525.18432 C 551.85796,525.74273 552.62878,526.51941 553.60748,526.89494 C 554.58621,527.27052 558.36515,531.70112 562.00513,536.76995 C 569.56179,547.29291 584.90242,567.35389 590.19164,573.62625 L 593.76841,577.86394 L 596.48987,575.14249 C 599.44734,572.185 598.84017,569.77334 593.88504,564.48993 C 592.56114,563.07832 589.44098,558.56497 586.96478,554.45941 C 584.48855,550.35391 582.15823,546.71496 581.75511,546.37281 C 581.35201,546.03068 577.77765,541.41201 573.82402,536.10903 C 569.87036,530.80607 566.11113,526.46733 565.46525,526.46728 C 564.81939,526.46728 564.29893,525.77251 564.29893,524.91218 C 564.29893,523.14643 551.88308,508.53498 547.34813,504.96778 C 545.71796,503.68548 544.39342,502.14237 544.39342,501.54652 C 544.39342,500.95067 541.19405,497.51864 537.27874,493.88757 C 533.36344,490.2565 528.58687,485.74601 526.66507,483.89592 C 524.74326,482.04588 521.36445,479.31158 519.16161,477.79209 C 516.95878,476.2726 512.35798,472.68035 508.93672,469.82212 C 501.58812,463.68286 491.38243,458.04209 487.63159,458.04209 C 485.58829,458.04209 484.8078,457.12676 484.36585,454.11541 C 484.04845,451.95293 483.67448,414.86335 483.54941,371.69416 C 483.42436,328.52499 483.09101,289.00077 482.77187,283.86887 L 482.18869,274.53816 L 484.75463,282.62479 C 488.19735,293.51309 490.58052,298.79801 492.10256,298.79801 C 493.87473,298.79801 493.68777,296.08305 491.44164,289.4673 C 490.37833,286.33536 489.82941,282.70201 490.23642,281.41957 C 491.02406,278.93801 496.78922,276.40432 501.62765,276.40432 C 503.89488,276.40432 504.58239,275.71408 504.58239,273.37184 C 504.58239,267.85139 507.59697,266.31513 516.51792,267.22913 C 523.91211,267.98666 524.48789,267.84212 524.48789,265.55735 C 524.48789,263.96054 522.8459,262.2717 519.82255,260.7365 C 515.16541,258.37167 502.87893,248.86259 499.87815,245.30195 C 499.00637,244.2675 496.95006,240.91652 495.32944,237.83738 C 493.7088,234.75824 490.51211,230.1986 488.21478,227.72911 C 485.91743,225.25966 482.99161,220.65116 481.72215,217.46534 C 479.56013,212.03949 479.55726,211.47145 481.48888,208.52341 C 482.62305,206.79246 484.85765,204.89691 486.46527,204.28571 C 488.07287,203.67449 490.96882,201.11537 492.88012,198.60952 L 496.34026,194.06082 L 488.37029,186.71289 C 480.22842,179.22507 477.13116,178.10212 473.05236,181.1922 C 471.03011,182.72428 470.7413,184.75573 470.79746,197.9486 C 470.83259,206.20539 470.41142,212.9555 469.86438,212.9555 C 467.22214,212.9555 465.6297,149.24682 467.88161,133.64447 C 468.72441,127.80515 469.05583,127.50964 471.7694,130.22321 C 474.31107,132.7649 475.96822,138.98396 475.96822,146.08542 C 475.96822,152.90831 477.57768,153.62256 483.35503,149.35117 C 485.50206,147.76379 488.98609,146.63164 492.02482,146.55196 C 496.61221,146.43166 497.75705,147.10053 504.23249,153.62773 C 508.16338,157.59008 511.54604,160.30124 511.77482,159.61494 C 512.00356,158.92863 509.27174,154.60171 505.70985,150.01209 C 501.97494,145.19955 498.77466,139.55218 498.12864,136.67696 C 496.05609,127.45266 492.10237,120.39812 486.85405,116.53818 C 483.0702,113.75528 481.35548,111.34362 480.12816,107.09084 C 478.17777,100.33259 472.5426,93.50141 470.99184,96.01063 C 470.442,96.90026 470.3071,104.26685 470.68082,112.37823 C 471.13052,122.13904 470.90987,127.11298 470.05877,127.11298 C 467.67609,127.11298 466.95651,119.18435 466.17099,84.61938 C 465.74073,65.68736 465.11348,49.94184 464.77137,49.62922 C 464.42924,49.3166 458.41865,48.78484 451.43623,48.46288 L 438.76202,47.87972 z M 424.45493,125.32458 C 420.92482,125.34637 416.2517,126.84194 416.2517,128.4737 C 416.2517,130.09632 422.36535,132.30004 424.02727,131.27291 C 424.8877,130.74114 425.07745,131.19865 424.57157,132.51701 C 423.20079,136.0892 426.03278,134.74966 428.03171,130.88413 C 429.8227,127.42073 429.77373,127.116 427.37077,125.83 C 426.66665,125.45317 425.63164,125.31734 424.45493,125.32458 z M 430.01449,153.20009 C 429.75349,153.17495 429.4764,153.27163 429.19805,153.54999 C 428.7874,153.96063 428.85651,155.01551 429.39243,155.88267 C 430.17625,157.15092 430.48727,157.14687 430.90867,155.88267 C 431.35971,154.52957 430.79744,153.27549 430.01449,153.20009 z M 524.79893,183.01946 C 524.57531,183.11649 524.48789,183.51887 524.48789,184.14694 C 524.48789,185.53 523.50816,186.89479 522.31073,187.17941 C 520.50149,187.60941 520.65917,187.92122 523.24381,189.16219 C 524.95444,189.98352 527.75365,191.47989 529.46428,192.46681 C 533.16619,194.60256 533.19656,194.60342 533.19656,193.16661 C 533.19656,192.54711 531.23712,189.696 528.84222,186.8295 C 526.4497,183.96583 525.29084,182.80603 524.79893,183.01946 z M 534.44064,194.6051 C 534.42358,194.61188 534.44064,194.65893 534.44064,194.68285 C 534.44064,195.48045 541.39789,211.25807 543.18819,214.51061 C 544.84103,217.51338 544.6861,221.37222 542.87717,221.97518 C 542.00745,222.2651 544.00355,225.05858 547.5814,228.58443 C 551.00319,231.95651 554.85723,237.10649 556.13455,240.01454 C 557.41186,242.92261 558.8609,245.30195 559.36143,245.30195 C 561.18691,245.30195 561.48438,240.36521 559.75019,238.92596 C 558.76918,238.1118 558.05213,236.5585 558.15621,235.46582 C 558.48541,232.009 558.12531,230.61408 556.40669,228.89545 C 555.48696,227.97572 553.77527,224.31844 552.59666,220.76996 C 551.41805,217.22149 549.09093,212.29883 547.42589,209.84527 C 545.76086,207.39169 544.39403,205.00177 544.39342,204.51899 C 544.3928,204.03618 542.15345,201.45846 539.41703,198.80392 C 536.85165,196.31529 534.69665,194.50344 534.44064,194.6051 z M 510.21968,199.93138 C 508.67842,200.00634 510.34469,202.12901 514.72952,205.10215 C 518.60445,207.72954 520.50165,210.23448 522.34961,215.13266 C 526.11543,225.11441 528.88243,222.95779 525.34322,212.79997 C 523.66113,207.9723 518.17974,202.62836 512.8245,200.59232 C 511.57864,200.11863 510.73345,199.90639 510.21968,199.93138 z M 469.66999,216.10462 C 470.39944,215.65378 470.81366,221.36746 470.75857,230.95599 C 470.70932,239.52974 470.19522,246.54603 469.59224,246.54603 C 468.10263,246.54603 468.17768,217.02693 469.66999,216.10462 z M 469.74775,252.76651 C 470.43201,252.76651 470.99184,253.8769 470.99184,255.2547 C 470.99184,258.18919 472.99303,261.96336 476.90128,266.37379 C 478.44086,268.1112 479.7005,270.2546 479.7005,271.11691 C 479.7005,273.55608 478.99929,273.06108 473.55778,266.87921 C 469.76545,262.57088 468.50365,260.04501 468.50365,256.92646 C 468.50365,254.6279 469.0635,252.76651 469.74775,252.76651 z M 565.42638,252.76651 C 564.85139,252.76651 562.15012,255.98561 559.43917,259.92006 C 554.99724,266.36679 549.30532,272.49989 537.20099,283.79111 C 534.95359,285.88757 532.1257,287.60115 530.94164,287.60115 C 527.01109,287.60115 504.58239,307.94802 504.58239,311.5111 C 504.58239,312.8121 507.43788,316.92499 510.95838,320.64741 C 515.61991,325.57631 518.28108,327.41218 520.71673,327.41218 C 524.99927,327.41218 525.92236,328.40173 524.37127,331.29998 C 522.73282,334.36147 519.93483,334.25489 518.22855,331.0667 C 517.4755,329.65962 515.69396,328.08267 514.30188,327.56769 C 512.90978,327.05274 508.87511,323.03305 505.32107,318.62576 C 498.36688,310.00209 488.84692,303.50241 487.16507,306.22369 C 486.64089,307.07183 486.41186,317.07256 486.65965,328.46188 C 486.90746,339.85122 487.46069,365.13934 487.86487,384.64053 C 488.26903,404.14171 488.80342,420.79701 489.07009,421.65234 C 489.7803,423.93009 491.74086,423.55027 493.69656,420.75813 C 499.89083,411.91459 523.17262,387.6723 534.3629,378.42005 C 559.84027,357.35505 570.5194,343.33576 570.5194,330.9112 C 570.5194,323.21576 567.13358,308.94173 564.76545,306.57361 C 563.09565,304.90377 562.28493,305.02656 557.14537,307.66219 C 553.97231,309.28939 547.75214,313.27616 543.34371,316.52636 C 538.93526,319.77656 534.78173,322.43579 534.12964,322.43579 C 533.47753,322.43579 531.95659,323.69545 530.70838,325.23501 C 529.46015,326.77459 527.93696,327.55662 527.36487,326.98453 C 526.79279,326.41243 527.75365,324.86859 529.46428,323.56327 C 531.1749,322.25794 533.04261,320.68437 533.62422,320.06425 C 534.20583,319.44415 535.67851,317.90883 536.88996,316.643 C 538.10141,315.37713 542.08801,312.66966 545.75414,310.6169 C 554.0184,305.98955 567.73675,292.309 571.45246,284.99633 C 573.86245,280.25341 574.08802,278.68173 573.08534,273.29406 C 570.35577,258.62737 568.17009,252.76651 565.42638,252.76651 z M 354.24136,293.82164 C 351.63063,293.82164 345.5825,300.12109 342.88898,305.64053 C 341.88724,307.69328 340.87258,309.74952 340.63408,310.22812 C 340.39556,310.70674 343.04461,312.57616 346.54352,314.3492 C 352.3483,317.2907 355.27791,320.34953 353.73595,321.89151 C 353.40416,322.22329 351.07692,322.77515 348.56517,323.09673 C 343.85371,323.69995 337.87373,326.87441 337.87373,328.77291 C 337.87373,329.36542 339.41329,330.18092 341.295,330.5613 C 343.17669,330.94167 346.11586,331.72455 347.82649,332.3108 C 352.17809,333.80213 352.80287,333.80424 352.80287,332.38856 C 352.80287,330.73258 358.70306,330.7668 359.25662,332.42744 C 359.49465,333.14156 360.88096,332.60651 362.36684,331.22222 C 364.65136,329.09384 364.89558,328.0856 363.92196,324.69073 C 362.95216,321.30928 363.22595,320.16372 365.59371,317.4983 C 367.13981,315.75783 369.66096,312.54818 371.19213,310.34475 L 373.95248,306.34033 L 369.90917,304.27981 C 367.67993,303.13979 363.76839,300.32205 361.2005,298.02046 C 358.63259,295.71881 355.49792,293.82164 354.24136,293.82164 z M 318.62915,297.5539 C 312.1607,297.37865 295.4551,300.73624 283.75564,304.78523 C 266.37285,310.8011 266.04058,311.30833 264.97756,332.11642 L 264.20002,347.23994 L 268.35996,351.12772 C 270.65231,353.25517 273.41888,355.79744 274.50267,356.76503 C 275.58645,357.73265 277.73648,358.51455 279.28466,358.51455 C 281.88988,358.51455 282.0827,358.95477 281.57846,364.42399 C 281.2788,367.67419 279.61872,374.18598 277.88505,378.88658 C 274.28964,388.63516 274.54535,391.48528 279.20691,393.19368 C 284.10578,394.98902 284.12768,394.98574 286.82698,389.69466 C 290.67638,382.14922 299.27634,359.43986 299.34568,356.6484 C 299.43921,352.88426 302.25265,342.89849 303.77778,340.94169 C 304.51883,339.99092 305.46562,338.28925 305.87718,337.13166 C 307.3221,333.06773 312.79828,330.75408 321.46724,330.5613 L 329.78713,330.3669 L 330.17591,325.85707 C 330.55503,321.36916 330.50446,321.35739 324.733,320.49191 C 321.54332,320.01358 315.66839,319.93496 311.67001,320.29751 C 302.62459,321.11773 295.95837,326.16086 291.22019,335.80982 C 288.9134,340.5074 287.29216,342.34131 285.46626,342.34131 C 282.14162,342.34131 279.40129,339.48007 279.40129,336.04308 C 279.40129,331.58458 282.19784,316.95144 283.28908,315.70992 C 283.8425,315.08033 288.09727,314.43423 292.73645,314.31032 C 306.73102,313.93642 321.64519,311.13471 322.98348,308.63413 C 324.5331,305.73862 323.07881,298.76682 320.72856,297.86494 C 320.26539,297.68722 319.5532,297.57896 318.62915,297.5539 z M 253.89735,443.3851 C 251.93982,443.46698 250.41972,444.60163 247.1326,447.85606 C 244.33548,450.62537 242.07846,454.07843 242.07846,455.55391 C 242.07846,457.02384 240.46495,460.54696 238.50169,463.40726 C 236.53841,466.26754 233.11012,472.53584 230.88162,477.32555 C 228.65311,482.11533 226.48768,486.31418 226.06074,486.65628 C 224.77078,487.69002 220.92887,496.56688 220.92887,498.51405 C 220.92887,499.51436 216.45012,508.66102 210.9761,518.84721 C 205.50209,529.03339 201.02335,538.2079 201.02335,539.21926 C 201.02335,540.2306 199.71644,542.92604 198.14637,545.24534 C 196.57632,547.56464 194.00934,552.16484 192.43132,555.43137 C 190.85331,558.69784 188.07838,562.89664 186.24972,564.76208 C 182.41106,568.67786 175.56036,579.16187 173.88654,583.69564 C 172.33574,587.89612 174.41244,593.48492 177.85209,594.34819 C 179.50908,594.76406 183.73848,593.54785 188.62128,591.23795 C 193.04045,589.14736 197.56456,587.42849 198.65179,587.42791 C 201.15894,587.42668 208.43589,582.19345 215.99135,574.98697 C 221.23396,569.98656 222.28609,568.01255 225.82748,556.51995 C 228.0082,549.44306 229.51832,542.92357 229.17098,542.01848 C 228.41117,540.03842 231.87786,530.55486 236.48005,522.07408 C 241.29903,513.19383 245.93706,497.92553 244.56664,495.36493 C 243.33363,493.06101 244.16221,488.19616 246.27728,485.5288 C 247.03377,484.57479 248.51664,481.55577 249.54304,478.80293 C 250.56941,476.05009 252.10952,473.54074 253.00316,473.24337 C 254.21465,472.84024 254.134,473.94684 252.57551,477.51995 C 249.13718,485.40287 248.9816,487.53144 251.87571,489.33884 C 253.3145,490.23736 254.51941,491.45581 254.51941,492.02142 C 254.51941,492.58702 256.33888,494.83547 258.56271,497.03669 C 263.18827,501.61526 269.39083,508.75835 271.27581,511.65478 C 271.98125,512.73879 274.63602,516.73999 277.18525,520.55784 C 279.73451,524.3757 282.33528,529.63515 282.97808,532.26011 C 283.62085,534.88502 285.62166,540.93845 287.41016,545.71188 C 289.19863,550.48532 291.57602,558.32311 292.69755,563.1292 C 295.00761,573.02827 297.14153,576.23111 301.40622,576.23107 C 307.49034,576.23107 305.8452,584.45644 299.61783,585.173 C 296.48418,585.53355 296.15505,586.05934 295.80779,591.47123 C 295.51359,596.05626 295.84132,597.38071 297.28515,597.38068 C 299.90661,597.38068 301.00307,599.66024 299.34568,601.65724 C 298.57642,602.58417 297.99453,605.23448 298.06272,607.52781 C 298.3509,617.22015 295.73701,628.14265 290.59815,638.70792 C 287.70013,644.66614 284.55215,650.20322 283.6001,650.99337 C 282.64806,651.78348 281.88948,653.41325 281.88948,654.609 C 281.88948,655.80482 279.36281,658.95219 276.29107,661.60705 C 273.21933,664.2619 267.45567,669.36457 263.46134,672.9594 C 253.1465,682.24246 246.76013,686.87656 244.25562,686.91659 C 243.06399,686.93562 241.37801,688.07519 240.52335,689.44365 C 239.6687,690.81215 237.86754,691.93188 236.51891,691.93184 C 235.17027,691.93184 228.21616,693.40212 221.0455,695.1976 C 209.22807,698.15655 206.49636,698.38055 191.7704,697.76355 C 177.0931,697.14861 163.14056,694.52168 161.21233,692.0096 C 160.8702,691.56387 157.36205,689.56565 153.43674,687.53863 C 149.51144,685.51165 141.95357,679.66971 136.64146,674.59228 C 131.32937,669.51487 125.92954,664.75627 124.62819,664.01747 C 123.32683,663.27873 121.64732,661.65292 120.89589,660.40184 C 119.22758,657.62412 108.90146,647.15538 107.8329,647.14443 C 106.93034,647.13521 103.25771,641.36096 99.35751,633.88706 C 97.8378,630.97491 94.98924,627.77043 93.05928,626.77241 C 88.80335,624.57157 86.29337,617.36195 83.41755,599.2468 C 82.33131,592.40429 81.16707,585.54625 80.85161,584.00666 C 80.31529,581.38946 79.66542,581.20747 70.51006,581.20744 L 60.71283,581.20744 L 58.06912,586.80587 C 55.52788,592.21217 55.50592,592.54787 57.6026,595.7478 C 58.8642,597.67326 60.10854,602.79123 60.55731,607.87771 C 61.08908,613.90493 62.54395,619.25887 65.22267,624.94513 C 67.37002,629.50345 69.14934,633.64522 69.14934,634.12034 C 69.14934,635.36247 76.55786,644.81828 79.95741,647.92201 C 81.54356,649.37012 82.83437,651.18961 82.83437,651.96532 C 82.83437,652.74101 83.36453,653.36496 84.03959,653.36492 C 84.71466,653.36492 86.07048,655.25961 87.03319,657.56374 C 87.9959,659.86784 91.06583,663.58666 93.87572,665.84475 C 96.68557,668.10281 99.0076,670.70421 99.0076,671.63755 C 99.0076,672.5709 99.74322,673.64985 100.67937,674.00912 C 101.61549,674.36833 104.20254,677.43009 106.39442,680.81275 C 108.58634,684.19544 111.27473,686.95552 112.38162,686.95547 C 113.48853,686.95547 116.39882,688.87412 118.83535,691.23204 C 121.27189,693.58998 125.55734,697.7516 128.36046,700.44612 C 131.16359,703.14064 134.80258,705.72672 136.44707,706.23893 C 138.09158,706.75114 145.87887,710.28625 153.74776,714.09228 C 166.79508,720.40306 168.7433,721.01476 175.79155,720.81817 C 181.23069,720.66643 183.81064,721.09063 184.50022,722.29553 C 185.26642,723.63434 186.91795,723.79237 192.15918,722.95645 C 196.39203,722.28134 199.73837,722.3591 201.21775,723.15083 C 202.50619,723.8404 204.08474,724.08574 204.71675,723.69513 C 205.34878,723.30452 209.66284,723.8474 214.31961,724.90035 C 218.97638,725.95329 230.91271,727.56092 240.83437,728.47711 C 259.45756,730.19691 262.35522,730.15928 281.26744,727.89395 C 289.83994,726.86714 294.46371,725.52795 301.0952,722.17889 C 320.50182,712.37814 323.13004,699.67552 307.54894,690.88214 C 303.71452,688.71814 299.30163,686.96479 297.75169,686.95547 C 292.95965,686.92659 289.35405,685.4828 289.35405,683.65085 C 289.35405,681.84943 296.53827,670.44112 299.88998,666.93333 C 300.92552,665.84954 301.795,663.81436 301.795,662.3846 C 301.795,660.0294 307.44864,651.5421 313.03073,645.55045 C 314.23249,644.26049 316.04019,640.02345 317.07403,636.142 C 318.10785,632.2605 319.87108,625.84524 320.96182,621.87378 C 322.05256,617.9023 322.99956,610.90423 323.10012,606.32259 C 323.20067,601.74094 323.74339,597.41022 324.30534,596.68086 C 324.86729,595.95156 325.74119,592.08077 326.21035,588.08883 C 327.18385,579.80576 325.54293,577.47068 318.66802,577.43628 C 313.50917,577.41044 312.43605,576.39402 312.01989,571.02143 C 311.66491,566.43878 311.67464,566.42904 316.99628,566.04504 C 322.22835,565.66752 322.31915,565.55841 322.71134,560.75764 C 323.34608,552.98738 318.38321,545.12875 312.83633,545.1287 C 309.08036,545.1287 305.78942,540.56241 302.45592,530.74387 C 298.99574,520.55216 294.94693,513.07967 287.37128,502.82948 C 284.58228,499.05583 281.95371,495.05716 281.53958,493.92645 C 281.12544,492.79571 276.8874,488.73274 272.09225,484.90676 C 263.06415,477.70339 258.8369,472.98714 260.42886,471.80488 C 262.38806,470.34991 264.47216,461.92244 264.47216,455.35953 C 264.47216,447.60854 262.5398,444.91142 256.07453,443.61837 C 255.2373,443.45093 254.54988,443.35782 253.89735,443.3851 z M 349.77039,446.4176 C 349.33075,446.42112 348.8367,446.4332 348.29303,446.45646 C 340.74674,446.77959 332.66462,449.17609 333.67491,450.8108 C 334.14223,451.56692 333.51994,452.92277 332.31419,453.80439 C 330.60804,455.05197 329.59611,455.06429 327.76547,453.92103 C 326.02257,452.8326 324.86022,452.81691 323.21676,453.84327 C 321.99683,454.60512 319.19765,455.61469 316.99628,456.09819 C 313.67079,456.82859 312.99183,457.56706 312.99183,460.41365 C 312.99183,462.298 313.32568,464.20763 313.76941,464.65134 C 314.89615,465.77808 320.66234,464.28244 323.02236,462.24091 C 324.10261,461.30644 325.57401,460.53029 326.2881,460.53029 C 327.72839,460.53029 345.20095,455.00601 350.66457,452.83245 C 353.17999,451.83177 354.04506,450.72078 353.77481,448.82804 C 353.49687,446.88108 352.84793,446.39286 349.77039,446.4176 z M 180.88457,451.23846 C 167.48671,451.29499 164.90813,451.82804 156.23595,454.69859 C 150.41981,456.6238 141.74224,460.0786 136.95248,462.35755 C 132.16271,464.63648 126.84422,466.90392 125.13359,467.41168 C 123.42297,467.91945 120.90366,469.40407 119.53516,470.7163 C 99.45518,489.97071 94.10954,496.04597 93.13704,500.76896 C 92.73745,502.70947 91.73558,504.5625 90.88212,504.89004 C 90.02865,505.21753 89.60275,506.55928 89.94904,507.88363 C 90.29536,509.20794 89.93554,510.2941 89.17148,510.29406 C 88.40741,510.29406 87.81075,509.73427 87.81075,509.04996 C 87.81075,508.36571 86.40352,507.80591 84.70051,507.80588 C 82.29762,507.80588 81.61217,508.43277 81.66803,510.60509 C 81.77686,514.83865 78.69459,522.73503 76.92494,522.735 C 76.06598,522.735 75.36982,523.61219 75.36982,524.6789 C 75.36982,525.74566 75.89864,526.26332 76.57502,525.84524 C 77.25143,525.42719 77.51978,525.87497 77.1582,526.8172 C 76.79662,527.75944 75.24919,528.4626 73.73694,528.41119 C 71.72273,528.34273 71.04757,528.97335 71.20987,530.78273 C 71.33176,532.14124 71.06763,533.54089 70.58782,533.89299 C 70.10802,534.24508 68.64751,536.19066 67.36096,538.20844 C 65.75476,540.72746 65.46918,542.03586 66.46677,542.36836 C 67.45327,542.6972 67.06061,544.38563 65.22267,547.65577 C 63.73392,550.30465 62.06431,552.2093 61.49039,551.85459 C 60.91649,551.4999 60.44068,555.8591 60.44068,561.57408 L 60.44068,571.99337 L 64.48399,573.27633 C 69.01492,574.7447 71.43654,574.45169 78.05238,571.64347 C 82.54589,569.73613 82.6731,569.50005 85.94461,556.05341 C 88.60729,545.10933 89.09203,540.91865 88.39393,534.90381 C 87.87867,530.46433 87.99989,527.0853 88.70496,526.6228 C 89.3604,526.1928 90.6987,524.40979 91.65966,522.65724 C 96.22273,514.33524 101.19408,508.0203 105.18921,505.4732 C 107.60081,503.9357 113.00704,499.44542 117.20248,495.52045 C 122.63921,490.43427 128.96943,486.34609 139.20741,481.29111 C 147.10794,477.39022 154.28142,474.21953 155.18624,474.21531 C 156.09106,474.2111 158.45127,473.36341 160.39589,472.34918 C 162.34052,471.33493 168.77872,469.89718 174.70298,469.1612 C 184.38283,467.95864 187.36326,468.16281 204.13358,471.06621 L 222.795,474.29309 L 226.21626,470.24978 C 228.37099,467.70711 229.63752,464.78834 229.63752,462.31868 C 229.63752,458.84217 229.03779,458.14643 224.35012,456.40921 C 212.31034,451.9474 207.55212,451.28517 187.33832,451.23846 C 184.93343,451.2329 182.79854,451.23038 180.88457,451.23846 z M 604.84862,460.10263 C 593.70494,460.23879 581.09031,461.29325 573.62962,463.01848 C 567.47137,464.44253 560.47333,466.06203 558.07845,466.59524 C 555.68357,467.12845 552.32452,468.27935 550.61388,469.1612 C 544.38082,472.37449 534.44098,479.62734 534.47954,480.94122 C 534.54086,483.03099 537.21177,485.84341 540.97215,487.78374 C 542.85383,488.75467 544.39342,490.0143 544.39342,490.58294 C 544.39342,492.40981 549.32783,491.70466 554.34617,489.14446 C 557.02866,487.77595 559.95255,486.65631 560.87767,486.65628 C 561.80278,486.65628 564.79244,485.60251 567.4869,484.32358 C 570.18138,483.04472 575.25159,481.33593 578.76151,480.51355 C 586.80524,478.62897 611.04324,478.51694 620.90521,480.31916 C 637.00021,483.26041 659.21731,491.8629 664.37078,497.15331 C 667.63073,500.49991 675.79935,506.54305 677.12273,506.60066 C 677.68157,506.62499 681.21269,510.60299 684.97608,515.42595 C 688.73947,520.24886 692.46422,524.87105 693.25709,525.72862 C 695.58496,528.24646 706.12326,549.29057 706.12569,551.42693 C 706.12924,554.5418 710.11717,565.54643 711.60747,566.55046 C 714.00037,568.16251 719.81072,567.64826 719.81072,565.81178 C 719.81072,564.86521 720.86838,563.78382 722.18228,563.44022 C 724.19977,562.91263 724.50253,561.99977 724.00954,557.41414 C 723.29763,550.7922 721.39786,543.42476 718.99428,537.81965 C 718.00434,535.51113 717.49536,533.33137 717.82796,532.99877 C 718.16053,532.66619 717.0504,530.243 715.37865,527.59475 C 713.70689,524.94651 712.34615,522.29084 712.34615,521.6853 C 712.34615,521.07973 711.2928,519.23496 710.01347,517.60311 C 708.73413,515.97127 707.27228,512.82893 706.7866,510.60509 C 706.29528,508.35535 705.12625,506.56183 704.14292,506.56178 C 703.17091,506.56178 702.3934,505.81887 702.3934,504.89004 C 702.3934,502.49338 681.01636,482.18977 676.03415,479.85263 C 673.7516,478.78189 668.83395,476.08874 665.07058,473.86543 C 655.01152,467.92275 642.3128,464.11501 621.87717,460.91907 C 617.67806,460.26237 611.53482,460.02093 604.84862,460.10263 z M 282.86144,473.47665 C 282.28566,473.40924 281.88948,474.42375 281.88948,476.00371 C 281.88948,477.75472 282.44932,479.19174 283.13358,479.19171 C 283.81784,479.19171 284.37768,478.10942 284.37768,476.78127 C 284.37768,475.45315 283.81784,474.01616 283.13358,473.59329 C 283.04538,473.53877 282.94368,473.48628 282.86144,473.47665 z M 487.94263,524.71778 C 488.05827,524.7589 488.14822,526.23942 488.25365,528.95549 C 488.39973,532.71886 488.75975,538.70042 489.07009,542.25174 C 489.38043,545.80308 489.16257,548.99687 488.56467,549.36641 C 486.88895,550.40206 486.27936,543.05141 487.16507,532.06571 C 487.57458,526.98631 487.79395,524.66491 487.94263,524.71778 z M 423.71624,558.42496 L 423.71624,563.59572 C 423.71624,568.90461 422.5264,570.68588 415.78514,575.49239 C 413.95184,576.79954 411.17451,579.05173 409.60357,580.50764 C 408.03262,581.96355 405.33812,584.28519 403.61635,585.63952 C 401.89457,586.99388 400.12676,588.9405 399.72856,589.95499 C 399.33038,590.96948 398.96614,589.77929 398.91212,587.35015 C 398.8581,584.92107 398.28492,582.40752 397.62916,581.75174 C 395.97699,580.09957 397.39808,578.502 403.07206,575.60902 C 405.74581,574.24577 410.24352,570.88675 413.10257,568.14445 C 415.96163,565.4022 419.51404,562.10004 420.99478,560.79652 L 423.71624,558.42496 z M 610.64144,570.67151 C 607.80845,570.67321 606.19076,572.47763 604.10994,577.12526 C 601.93328,581.98695 601.9385,582.27013 604.14882,585.63952 C 605.40625,587.55637 607.73878,589.85535 609.3196,590.73255 C 610.90036,591.60973 613.55585,592.34116 615.22903,592.36543 C 619.09676,592.42148 625.25954,586.59315 625.25954,582.8792 C 625.25954,578.70966 621.27372,571.06667 619.46673,571.76009 C 618.6162,572.08648 616.13462,571.84352 613.94607,571.21581 C 612.66921,570.8496 611.58576,570.67095 610.64144,570.67151 z M 589.41408,581.36296 C 587.10223,581.39831 584.15219,581.49073 580.39439,581.6351 C 571.18825,581.98883 563.25699,582.33011 562.74379,582.37378 C 561.46509,582.48266 561.57792,585.8928 562.93819,588.43875 C 563.90391,590.24623 565.99787,590.47444 578.17835,590.18825 C 600.32266,589.66787 602.84573,588.79857 598.74479,583.19022 C 597.65914,581.70551 596.34962,581.25688 589.41408,581.36296 z M 497.62324,587.66117 C 498.34247,587.62651 499.50221,590.96973 500.11142,595.82555 C 500.91395,602.22225 499.96899,603.98508 497.42884,600.80194 C 496.74629,599.9466 496.33504,597.84725 496.53466,596.13657 C 496.73428,594.42595 496.94415,591.67024 497.00118,589.99385 C 497.05507,588.41014 497.29631,587.67694 497.62324,587.66117 z M 725.21476,588.08883 C 724.88842,588.14349 724.50969,588.37357 724.00954,588.78863 C 723.06307,589.57414 722.30076,591.1351 722.2989,592.24879 C 722.29025,597.48159 714.37425,624.70883 710.48003,632.91512 C 708.08119,637.97016 706.12569,642.375 706.12569,642.71236 C 706.12569,643.04971 704.41161,645.7284 702.31564,648.66069 C 700.21965,651.593 696.75792,656.62438 694.65669,659.85754 C 692.55545,663.09072 689.79149,666.0613 688.51398,666.46679 C 687.23644,666.87226 685.67501,668.22707 685.01496,669.46039 C 684.35489,670.69374 679.72742,674.44125 674.75119,677.78028 C 669.77494,681.11929 664.97198,684.54508 664.05974,685.40035 C 663.14751,686.25567 661.64203,686.95552 660.71624,686.95547 C 659.79044,686.95547 654.92071,688.58535 649.90816,690.57112 C 638.10045,695.24894 617.23496,697.7976 607.57008,695.7419 C 599.44291,694.01322 585.21654,689.41774 583.62127,688.00517 C 582.97122,687.42958 581.44627,686.95552 580.23887,686.95547 C 578.07949,686.95547 567.95275,681.83367 564.29893,678.90774 C 563.27253,678.08582 559.91348,675.9687 556.83435,674.2035 C 545.94523,667.96097 528.49545,648.64001 522.03859,635.63658 L 517.87865,627.23893 L 510.06418,627.23893 C 505.7593,627.23893 501.96701,627.70067 501.62765,628.24977 C 501.02042,629.23231 505.13108,641.70842 508.47017,649.01059 C 509.40892,651.06347 512.57167,655.95425 515.5071,659.89642 C 521.4055,667.81767 540.17668,686.95552 542.06073,686.95547 C 542.7183,686.95547 544.90706,688.49508 546.92047,690.37673 C 548.93389,692.25842 553.27091,695.17541 556.52333,696.86934 C 559.77576,698.56324 562.71077,700.24271 563.05483,700.60162 C 564.83401,702.4575 574.45195,706.86102 576.73986,706.86097 C 578.18886,706.86097 580.47564,707.45647 581.83289,708.18283 C 583.19011,708.9092 586.65635,709.76768 589.5307,710.08785 C 592.40507,710.40803 597.57845,711.71552 600.99971,713.0037 C 611.86633,717.09517 619.21271,718.34946 637.07845,719.14641 C 654.21586,719.91089 688.33566,719.74041 700.52725,718.83538 C 710.73489,718.07768 724.00807,715.31001 726.10894,713.5091 C 727.18922,712.58309 728.70069,711.83739 729.45245,711.83736 C 730.20422,711.83736 731.96096,710.37452 733.37913,708.57161 C 735.45759,705.92925 735.98395,703.51675 735.98395,696.13068 C 735.98395,689.27994 735.56452,686.95552 734.31221,686.95547 C 733.39095,686.95547 730.7317,685.9847 728.40275,684.81717 C 726.07381,683.64967 720.91295,682.33623 716.93375,681.86245 C 712.95458,681.38868 709.32447,680.62919 708.88602,680.1907 C 707.89343,679.19812 711.35481,672.68102 715.68967,667.39985 C 717.48819,665.20871 719.6509,661.5697 720.51052,659.31326 C 729.90057,634.6648 732.01295,628.01681 732.67933,621.01846 C 732.8422,619.30784 733.34629,617.06851 733.76791,616.04208 C 734.18953,615.01571 734.78749,610.61625 735.12864,606.24485 C 735.87102,596.73184 733.41394,589.85386 729.60797,590.84919 C 728.19355,591.21906 726.97526,590.65513 726.49772,589.41069 C 726.1187,588.42299 725.75867,587.99776 725.21476,588.08883 z M 633.38503,700.2906 C 633.61956,700.36687 633.87137,701.23974 634.12371,702.81767 C 634.47935,705.0415 634.56321,706.86102 634.31811,706.86097 C 633.36602,706.86097 632.53318,703.16762 632.99626,701.02929 C 633.11036,700.50247 633.24432,700.24485 633.38503,700.2906 z "
       id="path3262" />
  </g>
</svg>
