<?xml version="1.0" encoding="UTF-8" standalone="no"?>
<!-- Created with Inkscape (http://www.inkscape.org/) -->
<svg
   xmlns:dc="http://purl.org/dc/elements/1.1/"
   xmlns:cc="http://web.resource.org/cc/"
   xmlns:rdf="http://www.w3.org/1999/02/22-rdf-syntax-ns#"
   xmlns:svg="http://www.w3.org/2000/svg"
   xmlns="http://www.w3.org/2000/svg"
   xmlns:sodipodi="http://sodipodi.sourceforge.net/DTD/sodipodi-0.dtd"
   xmlns:inkscape="http://www.inkscape.org/namespaces/inkscape"
   width="520"
   height="520"
   id="svg4145"
   sodipodi:version="0.32"
   inkscape:version="0.45.1"
   version="1.0"
   sodipodi:docbase="/Users/lmixson/Pictures"
   sodipodi:docname="Ubuntu_GPL_1.svg"
   inkscape:output_extension="org.inkscape.output.svg.inkscape">
  <defs
     id="defs4147">
    <linearGradient
       id="linearGradient5141">
      <stop
         style="stop-color:#00ffff;stop-opacity:1;"
         offset="0"
         id="stop5143" />
      <stop
         style="stop-color:#ffffff;stop-opacity:0;"
         offset="1"
         id="stop5145" />
    </linearGradient>
  </defs>
  <sodipodi:namedview
     id="base"
     pagecolor="#ffffff"
     bordercolor="#666666"
     borderopacity="1.0"
     gridtolerance="10000"
     guidetolerance="10"
     objecttolerance="10"
     inkscape:pageopacity="0.0"
     inkscape:pageshadow="2"
     inkscape:zoom="0.5"
     inkscape:cx="252.90401"
     inkscape:cy="434"
     inkscape:document-units="px"
     inkscape:current-layer="layer1"
     width="520px"
     height="520px"
     showguides="true"
     inkscape:guide-bbox="true"
     inkscape:window-width="697"
     inkscape:window-height="581"
     inkscape:window-x="43"
     inkscape:window-y="36" />
  <metadata
     id="metadata4150">
    <rdf:RDF>
      <cc:Work
         rdf:about="">
        <dc:format>image/svg+xml</dc:format>
        <dc:type
           rdf:resource="http://purl.org/dc/dcmitype/StillImage" />
      </cc:Work>
    </rdf:RDF>
  </metadata>
  <g
     inkscape:label="Layer 1"
     inkscape:groupmode="layer"
     id="layer1">
    <path
       style="color:#000000;fill:#eec73e;fill-opacity:1;fill-rule:nonzero;stroke:none;stroke-width:1.92009819;stroke-linecap:butt;stroke-linejoin:miter;marker:none;marker-start:none;marker-mid:none;marker-end:none;stroke-miterlimit:4;stroke-dashoffset:0;stroke-opacity:1;visibility:visible;display:inline;overflow:visible;enable-background:accumulate"
       d="M 346.56251,329.1875 L 403.43751,386.0625 C 433.04174,352.41046 451.03126,308.30913 451.03126,260 C 451.03126,211.69087 433.04175,167.58953 403.43751,133.9375 L 346.56251,190.8125 C 348.43316,193.14955 350.25755,195.51402 351.93751,198 C 353.931,200.94994 355.7922,204.01376 357.50001,207.15625 C 359.20782,210.29874 360.78401,213.52734 362.18751,216.84375 C 363.59101,220.16016 364.8257,223.55954 365.90626,227.03125 C 366.98682,230.50296 367.88601,234.04788 368.62501,237.65625 C 369.36401,241.26462 369.9337,244.92983 370.31251,248.65625 C 370.69132,252.38267 370.90626,256.17417 370.90626,260 C 370.90626,263.82583 370.69133,267.61733 370.31251,271.34375 C 369.93369,275.07017 369.36401,278.73538 368.62501,282.34375 C 367.88601,285.95212 366.98682,289.49704 365.90626,292.96875 C 364.8257,296.44046 363.59101,299.83984 362.18751,303.15625 C 360.78401,306.47266 359.20782,309.70126 357.50001,312.84375 C 355.7922,315.98624 353.931,319.05006 351.93751,322 C 350.25755,324.48598 348.43316,326.85045 346.56251,329.1875 z "
       id="path6304" />
    <path
       style="color:#000000;fill:#f0a513;fill-opacity:1;fill-rule:nonzero;stroke:none;stroke-width:1.92009819;stroke-linecap:butt;stroke-linejoin:miter;marker:none;marker-start:none;marker-mid:none;marker-end:none;stroke-miterlimit:4;stroke-dashoffset:0;stroke-opacity:1;visibility:visible;display:inline;overflow:visible;enable-background:accumulate"
       d="M 190.81251,346.5625 L 133.93751,403.4375 C 167.58952,433.04175 211.69093,451.03125 260.00001,451.03125 C 308.30909,451.03125 352.41051,433.04176 386.06251,403.4375 L 329.18751,346.5625 C 326.85046,348.43315 324.48599,350.25754 322.00001,351.9375 C 319.05007,353.93099 315.98625,355.79219 312.84376,357.5 C 309.70127,359.20781 306.47267,360.784 303.15626,362.1875 C 299.83985,363.591 296.44047,364.82569 292.96876,365.90625 C 289.49705,366.98681 285.95213,367.886 282.34376,368.625 C 278.73539,369.364 275.07018,369.93369 271.34376,370.3125 C 267.61734,370.69131 263.82584,370.90625 260.00001,370.90625 C 256.17418,370.90625 252.38268,370.69131 248.65626,370.3125 C 244.92984,369.93369 241.26463,369.364 237.65626,368.625 C 234.04789,367.886 230.50297,366.98681 227.03126,365.90625 C 223.55955,364.82569 220.16017,363.591 216.84376,362.1875 C 213.52735,360.784 210.29875,359.20781 207.15626,357.5 C 204.01377,355.79219 200.94995,353.93099 198.00001,351.9375 C 195.51403,350.25754 193.14956,348.43315 190.81251,346.5625 z "
       id="path6300" />
    <path
       style="color:#000000;fill:#fb8b00;fill-opacity:1;fill-rule:nonzero;stroke:none;stroke-width:1.91999996;stroke-linecap:butt;stroke-linejoin:miter;marker:none;marker-start:none;marker-mid:none;marker-end:none;stroke-miterlimit:4;stroke-dasharray:none;stroke-dashoffset:0;stroke-opacity:1;visibility:visible;display:inline;overflow:visible;enable-background:accumulate"
       d="M 173.43751,190.8125 L 116.56251,133.9375 C 86.95826,167.58953 68.968756,211.69088 68.968757,260 C 68.968755,308.30913 86.958259,352.41048 116.56251,386.0625 L 173.43751,329.1875 C 171.56686,326.85045 169.74247,324.48598 168.06251,322 C 166.06902,319.05006 164.20782,315.98624 162.50001,312.84375 C 160.7922,309.70126 159.21601,306.47266 157.81251,303.15625 C 156.40901,299.83984 155.17432,296.44046 154.09376,292.96875 C 153.0132,289.49704 152.11401,285.95212 151.37501,282.34375 C 150.63601,278.73538 150.06632,275.07017 149.68751,271.34375 C 149.3087,267.61733 149.09376,263.82583 149.09376,260 C 149.09376,256.17417 149.3087,252.38267 149.68751,248.65625 C 150.06632,244.92983 150.63601,241.26462 151.37501,237.65625 C 152.11401,234.04788 153.0132,230.50296 154.09376,227.03125 C 155.17432,223.55954 156.40901,220.16016 157.81251,216.84375 C 159.21601,213.52734 160.7922,210.29874 162.50001,207.15625 C 164.20782,204.01376 166.06902,200.94994 168.06251,198 C 169.74247,195.51402 171.56686,193.14955 173.43751,190.8125 z "
       id="path6296" />
    <path
       style="color:#000000;fill:#f44800;fill-opacity:1;fill-rule:nonzero;stroke:none;stroke-width:1.92009819;stroke-linecap:butt;stroke-linejoin:miter;marker:none;marker-start:none;marker-mid:none;marker-end:none;stroke-miterlimit:4;stroke-dashoffset:0;stroke-opacity:1;visibility:visible;display:inline;overflow:visible;enable-background:accumulate"
       d="M 260.00001,68.968754 C 211.69093,68.968755 167.58951,86.958231 133.93751,116.5625 L 190.81251,173.4375 C 193.14956,171.56685 195.51403,169.74246 198.00001,168.0625 C 200.94995,166.06901 204.01377,164.20781 207.15626,162.5 C 210.29875,160.79219 213.52735,159.216 216.84376,157.8125 C 220.16017,156.409 223.55955,155.17431 227.03126,154.09375 C 230.50297,153.01319 234.04789,152.114 237.65626,151.375 C 241.26463,150.636 244.92984,150.06631 248.65626,149.6875 C 252.38268,149.30869 256.17418,149.09375 260.00001,149.09375 C 263.82584,149.09375 267.61734,149.30869 271.34376,149.6875 C 275.07018,150.06631 278.73539,150.636 282.34376,151.375 C 285.95213,152.114 289.49705,153.01319 292.96876,154.09375 C 296.44047,155.17431 299.83985,156.409 303.15626,157.8125 C 306.47267,159.216 309.70127,160.79219 312.84376,162.5 C 315.98625,164.20781 319.05007,166.06901 322.00001,168.0625 C 324.48599,169.74246 326.85046,171.56685 329.18751,173.4375 L 386.06251,116.5625 C 352.41052,86.958229 308.3091,68.968754 260.00001,68.968754 z "
       id="path6258" />
    <path
       sodipodi:type="arc"
       style="color:#000000;fill:#f44800;fill-opacity:1;fill-rule:nonzero;stroke:none;stroke-width:2;stroke-linecap:butt;stroke-linejoin:miter;marker:none;marker-start:none;marker-mid:none;marker-end:none;stroke-miterlimit:4;stroke-dasharray:none;stroke-dashoffset:0;stroke-opacity:1;visibility:visible;display:inline;overflow:visible;enable-background:accumulate"
       id="path6269"
       sodipodi:cx="265.48148"
       sodipodi:cy="506.582"
       sodipodi:rx="92.10582"
       sodipodi:ry="89.396828"
       d="M 357.5873 506.582 A 92.10582 89.396828 0 1 1  173.37566,506.582 A 92.10582 89.396828 0 1 1  357.5873 506.582 z"
       transform="matrix(0.6948529,0,0,0.7159091,75.52943,89.333337)" />
    <path
       sodipodi:type="arc"
       style="color:#000000;fill:#fb8b00;fill-opacity:1;fill-rule:nonzero;stroke:none;stroke-width:1.99967182;stroke-linecap:butt;stroke-linejoin:miter;marker:none;marker-start:none;marker-mid:none;marker-end:none;stroke-miterlimit:4;stroke-dasharray:none;stroke-dashoffset:0;stroke-opacity:1;visibility:visible;display:inline;overflow:visible;enable-background:accumulate"
       id="path6271"
       sodipodi:cx="265.48148"
       sodipodi:cy="506.582"
       sodipodi:rx="92.10582"
       sodipodi:ry="89.396828"
       d="M 357.5873 506.582 A 92.10582 89.396828 0 1 1  173.37566,506.582 A 92.10582 89.396828 0 1 1  357.5873 506.582 z"
       transform="matrix(0.6948529,0,0,0.7159091,267.52943,-102.66667)" />
    <path
       sodipodi:type="arc"
       style="color:#000000;fill:#fdca01;fill-opacity:1;fill-rule:nonzero;stroke:none;stroke-width:2;stroke-linecap:butt;stroke-linejoin:miter;marker:none;marker-start:none;marker-mid:none;marker-end:none;stroke-miterlimit:4;stroke-dasharray:none;stroke-dashoffset:0;stroke-opacity:1;visibility:visible;display:inline;overflow:visible;enable-background:accumulate"
       id="path6273"
       sodipodi:cx="265.48148"
       sodipodi:cy="506.582"
       sodipodi:rx="92.10582"
       sodipodi:ry="89.396828"
       d="M 357.5873 506.582 A 92.10582 89.396828 0 1 1  173.37566,506.582 A 92.10582 89.396828 0 1 1  357.5873 506.582 z"
       transform="matrix(0.6948529,0,0,0.7159091,75.52943,-294.66667)" />
    <path
       sodipodi:type="arc"
       style="color:#000000;fill:#fd3301;fill-opacity:1;fill-rule:nonzero;stroke:none;stroke-width:2;stroke-linecap:butt;stroke-linejoin:miter;marker:none;marker-start:none;marker-mid:none;marker-end:none;stroke-miterlimit:4;stroke-dasharray:none;stroke-dashoffset:0;stroke-opacity:1;visibility:visible;display:inline;overflow:visible;enable-background:accumulate"
       id="path6275"
       sodipodi:cx="265.48148"
       sodipodi:cy="506.582"
       sodipodi:rx="92.10582"
       sodipodi:ry="89.396828"
       d="M 357.5873 506.582 A 92.10582 89.396828 0 1 1  173.37566,506.582 A 92.10582 89.396828 0 1 1  357.5873 506.582 z"
       transform="matrix(0.6948529,0,0,0.7159091,-116.47057,-102.66667)" />
  </g>
</svg>
