<?xml version="1.0" encoding="UTF-8" standalone="no"?>
<!-- Created with Inkscape (http://www.inkscape.org/) -->
<svg
   xmlns:dc="http://purl.org/dc/elements/1.1/"
   xmlns:cc="http://web.resource.org/cc/"
   xmlns:rdf="http://www.w3.org/1999/02/22-rdf-syntax-ns#"
   xmlns:svg="http://www.w3.org/2000/svg"
   xmlns="http://www.w3.org/2000/svg"
   xmlns:xlink="http://www.w3.org/1999/xlink"
   xmlns:sodipodi="http://sodipodi.sourceforge.net/DTD/sodipodi-0.dtd"
   xmlns:inkscape="http://www.inkscape.org/namespaces/inkscape"
   id="svg2"
   sodipodi:version="0.32"
   inkscape:version="0.44"
   width="400"
   height="354"
   version="1.0"
   sodipodi:docbase="D:\wiki_svg"
   sodipodi:docname="Unbalanced_scales.png.svg">
  <metadata
     id="metadata7">
    <rdf:RDF>
      <cc:Work
         rdf:about="">
        <dc:format>image/svg+xml</dc:format>
        <dc:type
           rdf:resource="http://purl.org/dc/dcmitype/StillImage" />
      </cc:Work>
    </rdf:RDF>
  </metadata>
  <defs
     id="defs5" />
  <sodipodi:namedview
     inkscape:window-height="628"
     inkscape:window-width="905"
     inkscape:pageshadow="2"
     inkscape:pageopacity="0.0"
     guidetolerance="10.0"
     gridtolerance="10.0"
     objecttolerance="10.0"
     borderopacity="1.0"
     bordercolor="#666666"
     pagecolor="#ffffff"
     id="base"
     borderlayer="true"
     inkscape:showpageshadow="false"
     width="400px"
     height="354px"
     inkscape:zoom="0.5"
     inkscape:cx="380.56435"
     inkscape:cy="125.61642"
     inkscape:window-x="8"
     inkscape:window-y="52"
     inkscape:current-layer="svg2"
     showguides="true"
     inkscape:guide-bbox="true" />
  <g
     id="g2817"
     transform="translate(1.999998,-0.221704)">
    <g
       transform="matrix(0.965926,-0.258819,0.258819,0.965926,251.9719,-0.97947)"
       id="g2787">
      <path
         sodipodi:nodetypes="cccccc"
         d="M -51.25,46 L 69,46 M -206,46 L -84.5,46 M -68.5,-2 L -68.5,28.5"
         style="fill:none;fill-opacity:0.75;fill-rule:evenodd;stroke:black;stroke-width:16.875;stroke-linecap:butt;stroke-linejoin:miter;stroke-miterlimit:4;stroke-opacity:1"
         id="path2781" />
    </g>
    <path
       id="path2794"
       d="M 198,77 L 198,289"
       style="fill:none;fill-opacity:0.75;fill-rule:evenodd;stroke:black;stroke-width:16.875;stroke-linecap:butt;stroke-linejoin:miter;stroke-miterlimit:4;stroke-dasharray:none;stroke-opacity:1" />
    <path
       transform="matrix(1.134831,0,0,1.134831,-25.56171,-7.705056)"
       d="M 213 59 A 16 16 0 1 1  181,59 A 16 16 0 1 1  213 59 z"
       sodipodi:ry="16"
       sodipodi:rx="16"
       sodipodi:cy="59"
       sodipodi:cx="197"
       id="path1891"
       style="opacity:1;fill:none;fill-opacity:1;stroke:black;stroke-width:14.8700552;stroke-linecap:butt;stroke-linejoin:round;stroke-miterlimit:4;stroke-dasharray:none;stroke-dashoffset:0;stroke-opacity:1"
       sodipodi:type="arc" />
    <g
       transform="translate(2.828428,-2.828428)"
       id="g2804">
      <path
         style="fill:none;fill-opacity:0.75;fill-rule:evenodd;stroke:black;stroke-width:11.875;stroke-linecap:butt;stroke-linejoin:bevel;stroke-miterlimit:4;stroke-dasharray:none;stroke-opacity:1"
         d="M 27,195 L 66.5,95 L 106,195"
         id="path2798"
         sodipodi:nodetypes="ccc" />
      <path
         sodipodi:type="arc"
         style="opacity:1;fill:black;fill-opacity:1;stroke:none;stroke-width:11.875;stroke-linecap:butt;stroke-linejoin:bevel;stroke-miterlimit:4;stroke-dasharray:none;stroke-dashoffset:0;stroke-opacity:1"
         id="path2800"
         sodipodi:cx="65"
         sodipodi:cy="188"
         sodipodi:rx="57"
         sodipodi:ry="57"
         d="M 122,188 A 57,57 0 1 1 8,188"
         transform="translate(1.5,2)"
         sodipodi:start="0"
         sodipodi:end="3.1415927"
         sodipodi:open="true" />
    </g>
    <use
       height="350"
       width="400"
       transform="translate(255.1716,-64.17158)"
       id="use2808"
       xlink:href="#g2804"
       y="0"
       x="0" />
    <path
       sodipodi:nodetypes="cssssssssssssc"
       d="M 360.77118,308.86649 C 361.63774,307.75381 357.94276,297.19922 348.39682,297.19922 C 338.85087,297.19922 330.71914,304.27029 330.71914,315.23045 C 330.71914,326.1906 339.55799,339.62563 355.46788,339.62563 C 371.37779,339.62563 383.75216,323.71573 383.75216,310.2807 C 383.75216,296.84567 376.0514,275.27892 350.16458,275.27892 C 329.45856,275.27892 311.40902,289 294.40902,289 C 277.409,289 118.59099,289 101.59098,289 C 84.59099,289 66.541438,275.27892 45.835416,275.27892 C 19.948599,275.27892 12.247845,296.84567 12.247845,310.2807 C 12.247845,323.71573 24.622213,339.62563 40.532115,339.62563 C 56.442018,339.62563 65.280853,326.1906 65.280853,315.23045 C 65.280853,304.27029 57.149125,297.19922 47.603183,297.19922 C 38.057242,297.19922 34.362269,307.75381 35.228814,308.86649"
       style="fill:none;fill-opacity:0.75;fill-rule:evenodd;stroke:black;stroke-width:16.875;stroke-linecap:round;stroke-linejoin:miter;stroke-miterlimit:4;stroke-opacity:1"
       id="path2810" />
  </g>
</svg>
