<?xml version="1.0" encoding="UTF-8" standalone="no"?>
<!-- Created with Inkscape (http://www.inkscape.org/) -->
<svg
   xmlns:dc="http://purl.org/dc/elements/1.1/"
   xmlns:cc="http://web.resource.org/cc/"
   xmlns:rdf="http://www.w3.org/1999/02/22-rdf-syntax-ns#"
   xmlns:svg="http://www.w3.org/2000/svg"
   xmlns="http://www.w3.org/2000/svg"
   xmlns:sodipodi="http://inkscape.sourceforge.net/DTD/sodipodi-0.dtd"
   xmlns:inkscape="http://www.inkscape.org/namespaces/inkscape"
   sodipodi:docname="Anarchist_logo.svg"
   sodipodi:docbase="/home/ss181292/tmp/commons"
   inkscape:version="0.41"
   sodipodi:version="0.32"
   id="svg2"
   height="190.00000mm"
   width="200.00001mm">
  <defs
     id="defs3" />
  <sodipodi:namedview
     inkscape:window-y="0"
     inkscape:window-x="0"
     inkscape:window-height="735"
     inkscape:window-width="958"
     inkscape:current-layer="layer1"
     inkscape:document-units="px"
     inkscape:cy="521.74909"
     inkscape:cx="204.66083"
     inkscape:zoom="0.49497475"
     inkscape:pageshadow="2"
     inkscape:pageopacity="0.0"
     borderopacity="1.0"
     bordercolor="#666666"
     pagecolor="#ffffff"
     id="base" />
  <metadata
     id="metadata4">
    <rdf:RDF
       id="RDF5">
      <cc:Work
         id="Work6"
         rdf:about="">
        <dc:format
           id="format7">image/svg+xml</dc:format>
        <dc:type
           rdf:resource="http://purl.org/dc/dcmitype/StillImage"
           id="type9" />
      </cc:Work>
    </rdf:RDF>
  </metadata>
  <g
     id="layer1"
     inkscape:groupmode="layer"
     inkscape:label="Layer 1">
    <path
       id="path2199"
       d="M 0.0000000,336.61413 L 0.0000000,-1.3480469e-05 L 354.33068,-1.3480469e-05 L 708.66136,-1.3480469e-05 L 708.66136,336.61413 L 708.66136,673.22833 L 354.33068,673.22833 L 0.0000000,673.22833 L 0.0000000,336.61413 z M 459.36453,628.09251 C 476.23599,617.18799 498.95597,600.21095 509.85335,590.36581 L 529.66682,572.46560 L 538.68256,597.53763 C 543.64127,611.32727 549.35039,622.60966 551.36952,622.60966 C 553.38866,622.60966 560.06762,617.25865 566.21177,610.71857 C 575.58762,600.73844 576.54289,596.61813 572.15597,585.07972 C 564.79248,565.71221 565.53920,564.10222 577.05282,574.52193 C 586.83988,583.37913 587.17700,583.36315 587.19021,574.04101 C 587.20080,566.59212 591.51953,569.20060 606.17221,585.50604 C 616.60483,597.11531 631.70341,610.67064 639.72466,615.62894 L 654.30876,624.64407 L 650.44311,612.23763 C 648.31698,605.41415 635.49009,577.66373 621.93887,550.57004 C 608.38764,523.47634 597.30028,499.26194 597.30028,496.76026 C 597.30028,494.25858 612.09288,468.59153 630.17271,439.72222 C 662.11259,388.72175 663.04595,386.27099 663.07484,353.32649 C 663.09459,330.79481 658.66763,305.32309 649.87862,277.39849 C 639.00972,242.86573 631.57211,229.57408 608.14473,202.81655 C 575.62862,165.67828 520.34615,120.20525 478.84751,96.462163 C 455.83670,83.296713 451.38885,78.674833 455.08426,71.769173 C 457.58482,67.096453 461.32134,51.998173 463.38776,38.217386 L 467.14477,13.161453 L 437.54265,38.217386 L 407.94062,63.273333 L 419.51248,44.291333 C 425.87703,33.851227 429.12755,25.309319 426.73592,25.309319 C 420.35528,25.309319 398.03191,41.303560 393.11096,49.400880 C 389.64333,55.106813 387.58593,54.699080 381.88273,47.175427 C 375.36664,38.579466 374.88936,38.835493 374.73912,51.007466 C 374.59779,62.456693 372.80615,63.790853 360.08031,61.923080 C 327.88298,57.197520 205.25905,90.545393 178.28331,111.36323 C 170.70838,117.20903 150.03754,136.11434 132.34818,153.37501 C 105.29594,179.77178 95.351246,194.79844 69.758448,247.94962 C 39.438930,310.91736 39.339008,311.27580 41.534440,349.18696 C 43.367696,380.84361 47.724951,396.11345 67.480558,440.11457 C 80.539060,469.19961 96.223760,498.31906 102.33536,504.82457 L 113.44742,516.65283 L 91.901738,560.09612 C 80.051602,583.98996 71.360933,604.54431 72.589145,605.77252 C 76.278587,609.46196 131.30984,572.33192 137.97833,561.65396 C 141.38235,556.20324 145.59579,551.74353 147.34148,551.74353 C 149.08716,551.74353 166.18398,562.25045 185.33438,575.09220 C 228.12725,603.78792 292.34726,636.46277 317.70878,642.44367 C 328.10672,644.89579 357.33100,647.13086 382.65163,647.41053 C 427.96454,647.91099 429.17190,647.60693 459.36453,628.09251 z M 282.50659,524.86193 C 237.97031,505.00603 197.40780,482.12524 197.42349,476.86759 C 197.42930,474.89695 211.34869,452.78397 228.35535,427.72773 C 245.36200,402.67150 258.01884,385.99538 256.48169,390.66971 C 254.94456,395.34409 252.05717,407.87221 250.06524,418.50998 C 246.70503,436.45489 247.07681,437.32680 255.21467,430.58530 C 260.03883,426.58892 273.25055,406.43834 284.57411,385.80631 C 303.33111,351.63007 306.33603,348.52613 318.35730,350.90961 C 325.61456,352.34855 358.26375,358.72144 390.91117,365.07154 L 450.27013,376.61731 L 472.68656,432.54369 L 495.10304,488.47018 L 484.19380,494.56923 C 478.19372,497.92373 461.27184,503.42345 446.58958,506.79086 L 419.89466,512.91334 L 433.01912,521.52291 L 446.14362,530.13245 L 434.40474,533.59056 C 427.94835,535.49256 399.88750,538.21108 372.04721,539.63174 C 322.75749,542.14689 320.40665,541.75914 282.50659,524.86193 z M 149.71792,430.89433 C 130.96806,400.55645 118.43771,313.60785 132.87401,314.01356 C 143.56103,314.31388 202.86085,327.72023 205.59466,330.45404 C 207.01010,331.86955 197.87440,353.19625 185.29297,377.84674 C 156.52230,434.21674 154.04982,437.90350 149.71792,430.89433 z M 554.81600,412.12813 C 550.27910,400.30518 550.61216,399.88747 564.57624,399.88747 C 575.84046,399.88747 576.74678,401.12490 571.99096,410.01121 C 565.47112,422.19360 558.98525,422.99301 554.81600,412.12813 z M 564.39816,384.70187 C 556.30807,381.22543 555.97070,380.28007 562.71868,379.99579 C 567.36305,379.80011 574.79184,378.24749 579.22716,376.54547 C 585.12949,374.28055 586.45230,375.63753 584.16146,381.60734 C 580.67864,390.68342 578.94849,390.95434 564.39816,384.70187 z M 547.59130,313.63629 C 527.21140,311.49861 509.34741,308.56005 507.89355,307.10613 C 502.43585,301.64842 425.19682,135.55738 425.19682,129.27910 C 425.19682,125.67398 428.20492,120.22787 431.88151,117.17654 C 436.94140,112.97721 448.32257,117.18160 478.70380,134.47333 C 525.46011,161.08504 567.56906,200.50120 581.96820,231.13400 C 601.30083,272.26246 605.92080,320.07180 590.38258,318.21030 C 587.22726,317.83228 567.97118,315.77397 547.59130,313.63629 z M 402.41843,300.40468 C 394.06635,299.41989 375.59620,297.35970 361.37372,295.82641 L 335.51456,293.03865 L 366.43559,235.55108 L 397.35656,178.06350 L 416.33856,234.39232 C 438.41684,299.90932 438.93193,303.44468 424.52410,290.57640 C 413.82139,281.01731 413.75843,281.03250 417.27238,292.32280 C 419.22199,298.58685 420.09420,303.37073 419.21055,302.95357 C 418.32696,302.53642 410.77051,301.38941 402.41843,300.40468 z M 168.70792,279.74663 L 142.53397,277.90138 L 163.13051,242.17722 C 193.75860,189.05353 227.69635,156.95799 273.29115,137.99654 C 294.14402,129.32445 311.91512,122.93875 312.78246,123.80610 C 313.64977,124.67341 295.82091,160.95141 273.16278,204.42379 L 231.96613,283.46453 L 213.42400,282.52818 C 203.22581,282.01318 183.10358,280.76149 168.70792,279.74663 z "
       style="fill:#000000;fill-opacity:1.0000000" />
    <path
       id="path2177"
       d=""
       style="fill:#000000" />
    <path
       id="path2175"
       d=""
       style="fill:#000000" />
    <path
       id="path2173"
       d=""
       style="fill:#000000" />
    <path
       id="path1388"
       d=""
       style="fill:#000000" />
  </g>
</svg>
